<mxfile host="app.diagrams.net" modified="2023-09-28T13:10:38.793Z" agent="Mozilla/5.0 (Windows NT 10.0; Win64; x64) AppleWebKit/537.36 (KHTML, like Gecko) Chrome/117.0.0.0 Safari/537.36 Edg/117.0.2045.43" etag="9mOkv6bcGqDqasxVcCmd" version="21.8.2" type="device">
  <diagram id="C5RBs43oDa-KdzZeNtuy" name="Page-1">
    <mxGraphModel dx="631" dy="443" grid="1" gridSize="10" guides="1" tooltips="1" connect="1" arrows="1" fold="1" page="1" pageScale="1" pageWidth="827" pageHeight="1169" math="0" shadow="0">
      <root>
        <mxCell id="WIyWlLk6GJQsqaUBKTNV-0" />
        <mxCell id="WIyWlLk6GJQsqaUBKTNV-1" parent="WIyWlLk6GJQsqaUBKTNV-0" />
        <mxCell id="F-U62pCHfFjhAHxQt5MA-22" value="" style="edgeStyle=orthogonalEdgeStyle;rounded=0;orthogonalLoop=1;jettySize=auto;html=1;" edge="1" parent="WIyWlLk6GJQsqaUBKTNV-1" target="F-U62pCHfFjhAHxQt5MA-21">
          <mxGeometry relative="1" as="geometry">
            <mxPoint x="256" y="160" as="sourcePoint" />
          </mxGeometry>
        </mxCell>
        <mxCell id="F-U62pCHfFjhAHxQt5MA-1" style="edgeStyle=orthogonalEdgeStyle;rounded=0;orthogonalLoop=1;jettySize=auto;html=1;exitX=0.5;exitY=1;exitDx=0;exitDy=0;" edge="1" parent="WIyWlLk6GJQsqaUBKTNV-1" source="WIyWlLk6GJQsqaUBKTNV-6" target="F-U62pCHfFjhAHxQt5MA-2">
          <mxGeometry relative="1" as="geometry">
            <mxPoint x="254.73000000000002" y="450" as="targetPoint" />
          </mxGeometry>
        </mxCell>
        <mxCell id="WIyWlLk6GJQsqaUBKTNV-6" value="While inventory not iterated" style="rhombus;whiteSpace=wrap;html=1;shadow=0;fontFamily=Helvetica;fontSize=12;align=center;strokeWidth=1;spacing=6;spacingTop=-4;" parent="WIyWlLk6GJQsqaUBKTNV-1" vertex="1">
          <mxGeometry x="189.73" y="310" width="130.27" height="110" as="geometry" />
        </mxCell>
        <mxCell id="F-U62pCHfFjhAHxQt5MA-5" style="edgeStyle=orthogonalEdgeStyle;rounded=0;orthogonalLoop=1;jettySize=auto;html=1;" edge="1" parent="WIyWlLk6GJQsqaUBKTNV-1" source="F-U62pCHfFjhAHxQt5MA-2" target="F-U62pCHfFjhAHxQt5MA-6">
          <mxGeometry relative="1" as="geometry">
            <mxPoint x="254.73000000000002" y="600" as="targetPoint" />
          </mxGeometry>
        </mxCell>
        <mxCell id="F-U62pCHfFjhAHxQt5MA-13" style="edgeStyle=orthogonalEdgeStyle;rounded=0;orthogonalLoop=1;jettySize=auto;html=1;exitX=1;exitY=0.5;exitDx=0;exitDy=0;entryX=1;entryY=0.5;entryDx=0;entryDy=0;" edge="1" parent="WIyWlLk6GJQsqaUBKTNV-1" source="F-U62pCHfFjhAHxQt5MA-2" target="F-U62pCHfFjhAHxQt5MA-10">
          <mxGeometry relative="1" as="geometry" />
        </mxCell>
        <mxCell id="F-U62pCHfFjhAHxQt5MA-14" value="No" style="edgeLabel;html=1;align=center;verticalAlign=middle;resizable=0;points=[];" vertex="1" connectable="0" parent="F-U62pCHfFjhAHxQt5MA-13">
          <mxGeometry x="0.0405" y="4" relative="1" as="geometry">
            <mxPoint x="9" y="-34" as="offset" />
          </mxGeometry>
        </mxCell>
        <mxCell id="F-U62pCHfFjhAHxQt5MA-2" value="If iterator.next() == item" style="rhombus;whiteSpace=wrap;html=1;" vertex="1" parent="WIyWlLk6GJQsqaUBKTNV-1">
          <mxGeometry x="187.23" y="450" width="135" height="110" as="geometry" />
        </mxCell>
        <mxCell id="F-U62pCHfFjhAHxQt5MA-8" value="" style="edgeStyle=orthogonalEdgeStyle;rounded=0;orthogonalLoop=1;jettySize=auto;html=1;" edge="1" parent="WIyWlLk6GJQsqaUBKTNV-1" source="F-U62pCHfFjhAHxQt5MA-6" target="F-U62pCHfFjhAHxQt5MA-7">
          <mxGeometry relative="1" as="geometry" />
        </mxCell>
        <mxCell id="F-U62pCHfFjhAHxQt5MA-6" value="remove from inventory" style="shape=process;whiteSpace=wrap;html=1;backgroundOutline=1;" vertex="1" parent="WIyWlLk6GJQsqaUBKTNV-1">
          <mxGeometry x="194.73" y="590" width="120" height="60" as="geometry" />
        </mxCell>
        <mxCell id="F-U62pCHfFjhAHxQt5MA-11" value="" style="edgeStyle=orthogonalEdgeStyle;rounded=0;orthogonalLoop=1;jettySize=auto;html=1;" edge="1" parent="WIyWlLk6GJQsqaUBKTNV-1" source="F-U62pCHfFjhAHxQt5MA-7" target="F-U62pCHfFjhAHxQt5MA-10">
          <mxGeometry relative="1" as="geometry" />
        </mxCell>
        <mxCell id="F-U62pCHfFjhAHxQt5MA-7" value="increment removedCount by 1" style="whiteSpace=wrap;html=1;" vertex="1" parent="WIyWlLk6GJQsqaUBKTNV-1">
          <mxGeometry x="194.73" y="690" width="120" height="60" as="geometry" />
        </mxCell>
        <mxCell id="F-U62pCHfFjhAHxQt5MA-16" style="edgeStyle=orthogonalEdgeStyle;rounded=0;orthogonalLoop=1;jettySize=auto;html=1;exitX=0;exitY=0.5;exitDx=0;exitDy=0;entryX=0;entryY=0.5;entryDx=0;entryDy=0;" edge="1" parent="WIyWlLk6GJQsqaUBKTNV-1" source="F-U62pCHfFjhAHxQt5MA-10" target="WIyWlLk6GJQsqaUBKTNV-6">
          <mxGeometry relative="1" as="geometry" />
        </mxCell>
        <mxCell id="F-U62pCHfFjhAHxQt5MA-17" value="No" style="edgeLabel;html=1;align=center;verticalAlign=middle;resizable=0;points=[];" vertex="1" connectable="0" parent="F-U62pCHfFjhAHxQt5MA-16">
          <mxGeometry x="0.1183" y="6" relative="1" as="geometry">
            <mxPoint x="-7" as="offset" />
          </mxGeometry>
        </mxCell>
        <mxCell id="F-U62pCHfFjhAHxQt5MA-10" value="if removedCount == count" style="rhombus;whiteSpace=wrap;html=1;" vertex="1" parent="WIyWlLk6GJQsqaUBKTNV-1">
          <mxGeometry x="189.73" y="800" width="130" height="130" as="geometry" />
        </mxCell>
        <mxCell id="F-U62pCHfFjhAHxQt5MA-12" value="Yes" style="text;html=1;align=center;verticalAlign=middle;resizable=0;points=[];autosize=1;strokeColor=none;fillColor=none;" vertex="1" parent="WIyWlLk6GJQsqaUBKTNV-1">
          <mxGeometry x="254.73000000000002" y="558" width="40" height="30" as="geometry" />
        </mxCell>
        <mxCell id="F-U62pCHfFjhAHxQt5MA-15" style="edgeStyle=orthogonalEdgeStyle;rounded=0;orthogonalLoop=1;jettySize=auto;html=1;exitX=0.5;exitY=1;exitDx=0;exitDy=0;entryX=0.5;entryY=0;entryDx=0;entryDy=0;" edge="1" parent="WIyWlLk6GJQsqaUBKTNV-1" source="F-U62pCHfFjhAHxQt5MA-10">
          <mxGeometry relative="1" as="geometry">
            <mxPoint x="254.73000000000002" y="1010" as="targetPoint" />
          </mxGeometry>
        </mxCell>
        <mxCell id="F-U62pCHfFjhAHxQt5MA-18" value="Yes" style="text;html=1;align=center;verticalAlign=middle;resizable=0;points=[];autosize=1;strokeColor=none;fillColor=none;" vertex="1" parent="WIyWlLk6GJQsqaUBKTNV-1">
          <mxGeometry x="254.73000000000002" y="948" width="40" height="30" as="geometry" />
        </mxCell>
        <mxCell id="F-U62pCHfFjhAHxQt5MA-23" value="" style="edgeStyle=orthogonalEdgeStyle;rounded=0;orthogonalLoop=1;jettySize=auto;html=1;" edge="1" parent="WIyWlLk6GJQsqaUBKTNV-1" source="F-U62pCHfFjhAHxQt5MA-21" target="WIyWlLk6GJQsqaUBKTNV-6">
          <mxGeometry relative="1" as="geometry" />
        </mxCell>
        <mxCell id="F-U62pCHfFjhAHxQt5MA-21" value="&lt;div&gt;declare removedCount = 0;&lt;/div&gt;&lt;div&gt;&amp;nbsp; &amp;nbsp; declare iterator = inventory.iterator();&lt;/div&gt;" style="rounded=0;whiteSpace=wrap;html=1;" vertex="1" parent="WIyWlLk6GJQsqaUBKTNV-1">
          <mxGeometry x="110" y="200" width="292" height="70" as="geometry" />
        </mxCell>
        <mxCell id="F-U62pCHfFjhAHxQt5MA-24" value="Start" style="ellipse;whiteSpace=wrap;html=1;" vertex="1" parent="WIyWlLk6GJQsqaUBKTNV-1">
          <mxGeometry x="199.73" y="90" width="120" height="80" as="geometry" />
        </mxCell>
        <mxCell id="F-U62pCHfFjhAHxQt5MA-25" value="End" style="ellipse;whiteSpace=wrap;html=1;" vertex="1" parent="WIyWlLk6GJQsqaUBKTNV-1">
          <mxGeometry x="194.73" y="1010" width="120" height="80" as="geometry" />
        </mxCell>
      </root>
    </mxGraphModel>
  </diagram>
</mxfile>
